<svg xmlns="http://www.w3.org/2000/svg" viewBox="0 0 400 265" width="400" height="265" font-family="Arial, Helvetica, sans-serif" font-size="16">
  <rect x="0" y="0" width="400" height="265" fill="#ffffff"/>
  <line x1="10" y1="40" x2="360" y2="40" stroke="#222" stroke-width="2"/>
  <line x1="10" y1="230" x2="360" y2="230" stroke="#222" stroke-width="2"/>
  <text x="368" y="46" font-style="italic">r</text>
  <text x="368" y="236" font-style="italic">s</text>
  <polyline points="170,40 246.8,131.6 190,230" fill="none" stroke="#b5462f" stroke-width="3"/>
  <circle cx="170" cy="40" r="4" fill="#222"/>
  <circle cx="246.8" cy="131.6" r="4" fill="#222"/>
  <circle cx="190" cy="230" r="4" fill="#222"/>
  <text x="165" y="30">A</text>
  <text x="255.8" y="137.6">P</text>
  <text x="185" y="252">B</text>
  <path d="M 140 40 A 30 30 0 0 0 189.3 63.0" fill="none" stroke="#1f5fa8" stroke-width="2"/>
  <text x="134" y="80" text-anchor="end" fill="#1f5fa8">(3x + 10)°</text>
  <path d="M 226 230 A 36 36 0 0 0 208.0 198.8" fill="none" stroke="#1f5fa8" stroke-width="2"/>
  <text x="234" y="220" fill="#1f5fa8">(x + 20)°</text>
  <path d="M 228.8 110.1 A 28 28 0 0 0 232.8 155.8" fill="none" stroke="#1f5fa8" stroke-width="2"/>
  <text x="212.8" y="137.6" text-anchor="end" fill="#1f5fa8">110°</text>
</svg>
