<svg xmlns="http://www.w3.org/2000/svg" viewBox="0 0 370 250" width="370" height="250" font-family="Arial, Helvetica, sans-serif" font-size="16">
  <rect x="0" y="0" width="370" height="250" fill="#ffffff"/>
  <rect x="20" y="40" width="330" height="14" fill="#c9c9c9" stroke="#333" stroke-width="2"/>
  <line x1="30" y1="40" x2="42" y2="28" stroke="#555" stroke-width="1"/><line x1="44" y1="40" x2="56" y2="28" stroke="#555" stroke-width="1"/><line x1="58" y1="40" x2="70" y2="28" stroke="#555" stroke-width="1"/><line x1="72" y1="40" x2="84" y2="28" stroke="#555" stroke-width="1"/><line x1="86" y1="40" x2="98" y2="28" stroke="#555" stroke-width="1"/><line x1="100" y1="40" x2="112" y2="28" stroke="#555" stroke-width="1"/><line x1="114" y1="40" x2="126" y2="28" stroke="#555" stroke-width="1"/><line x1="128" y1="40" x2="140" y2="28" stroke="#555" stroke-width="1"/><line x1="142" y1="40" x2="154" y2="28" stroke="#555" stroke-width="1"/><line x1="156" y1="40" x2="168" y2="28" stroke="#555" stroke-width="1"/><line x1="170" y1="40" x2="182" y2="28" stroke="#555" stroke-width="1"/><line x1="184" y1="40" x2="196" y2="28" stroke="#555" stroke-width="1"/><line x1="198" y1="40" x2="210" y2="28" stroke="#555" stroke-width="1"/><line x1="212" y1="40" x2="224" y2="28" stroke="#555" stroke-width="1"/><line x1="226" y1="40" x2="238" y2="28" stroke="#555" stroke-width="1"/><line x1="240" y1="40" x2="252" y2="28" stroke="#555" stroke-width="1"/><line x1="254" y1="40" x2="266" y2="28" stroke="#555" stroke-width="1"/><line x1="268" y1="40" x2="280" y2="28" stroke="#555" stroke-width="1"/><line x1="282" y1="40" x2="294" y2="28" stroke="#555" stroke-width="1"/><line x1="296" y1="40" x2="308" y2="28" stroke="#555" stroke-width="1"/><line x1="310" y1="40" x2="322" y2="28" stroke="#555" stroke-width="1"/><line x1="324" y1="40" x2="336" y2="28" stroke="#555" stroke-width="1"/><line x1="338" y1="40" x2="350" y2="28" stroke="#555" stroke-width="1"/>
  <text x="185" y="22" text-anchor="middle">muro</text>
  <polyline points="80,54 80,210 290,210 290,54" fill="#f4efe2" stroke="#8a5a2b" stroke-width="3" stroke-dasharray="10,5"/>
  <text x="185" y="140" text-anchor="middle">cercado: 112 m²</text>
  <text x="185" y="234" text-anchor="middle" fill="#8a5a2b">tela (três lados)</text>
</svg>
