<svg xmlns="http://www.w3.org/2000/svg" viewBox="0 0 380 340" width="380" height="340" font-family="Arial, Helvetica, sans-serif" font-size="15">
  <rect width="380" height="340" fill="#fff"/>
  <polygon points="200,30 290,150 200,270 110,150" fill="#fbe3c4" stroke="#c0392b" stroke-width="4" stroke-linejoin="round"/>
  <line x1="200" y1="30" x2="200" y2="270" stroke="#6b4a2b" stroke-width="3" stroke-dasharray="8 5"/>
  <line x1="110" y1="150" x2="290" y2="150" stroke="#6b4a2b" stroke-width="3" stroke-dasharray="8 5"/>
  <polyline points="200,138 212,138 212,150" fill="none" stroke="#222" stroke-width="1.5"/>
  <g stroke="#555" stroke-width="1.2">
    <line x1="60" y1="30" x2="60" y2="270"/><line x1="54" y1="30" x2="66" y2="30"/><line x1="54" y1="270" x2="66" y2="270"/>
    <line x1="66" y1="30" x2="196" y2="30" stroke-dasharray="3 4"/><line x1="66" y1="270" x2="196" y2="270" stroke-dasharray="3 4"/>
    <line x1="110" y1="300" x2="290" y2="300"/><line x1="110" y1="294" x2="110" y2="306"/><line x1="290" y1="294" x2="290" y2="306"/>
    <line x1="110" y1="154" x2="110" y2="294" stroke-dasharray="3 4"/><line x1="290" y1="154" x2="290" y2="294" stroke-dasharray="3 4"/>
  </g>
  <text x="52" y="155" text-anchor="end">80 cm</text>
  <text x="200" y="324" text-anchor="middle">60 cm</text>
  <text x="300" y="80" fill="#c0392b">fita</text>
  <line x1="298" y1="84" x2="258" y2="108" stroke="#c0392b" stroke-width="1.2"/>
</svg>
