<svg xmlns="http://www.w3.org/2000/svg" viewBox="0 0 480 160" width="480" height="160" font-family="Arial, Helvetica, sans-serif" font-size="16">
  <rect width="480" height="160" fill="#fff"/>
  <g stroke="#333" stroke-width="1.5">
    <rect x="20" y="20" width="30" height="30" fill="#fff"/>
    <rect x="50" y="20" width="30" height="30" fill="#fff"/>
    <rect x="80" y="20" width="30" height="30" fill="#fff"/>
    <rect x="20" y="50" width="30" height="30" fill="#fff"/>
    <rect x="50" y="50" width="30" height="30" fill="#555"/>
    <rect x="80" y="50" width="30" height="30" fill="#fff"/>
    <rect x="20" y="80" width="30" height="30" fill="#fff"/>
    <rect x="50" y="80" width="30" height="30" fill="#fff"/>
    <rect x="80" y="80" width="30" height="30" fill="#fff"/>
  </g>
  <text x="65" y="140" text-anchor="middle">Figura 1</text>
  <g stroke="#333" stroke-width="1.5">
    <rect x="150" y="20" width="30" height="30" fill="#fff"/>
    <rect x="180" y="20" width="30" height="30" fill="#fff"/>
    <rect x="210" y="20" width="30" height="30" fill="#fff"/>
    <rect x="240" y="20" width="30" height="30" fill="#fff"/>
    <rect x="150" y="50" width="30" height="30" fill="#fff"/>
    <rect x="180" y="50" width="30" height="30" fill="#555"/>
    <rect x="210" y="50" width="30" height="30" fill="#555"/>
    <rect x="240" y="50" width="30" height="30" fill="#fff"/>
    <rect x="150" y="80" width="30" height="30" fill="#fff"/>
    <rect x="180" y="80" width="30" height="30" fill="#fff"/>
    <rect x="210" y="80" width="30" height="30" fill="#fff"/>
    <rect x="240" y="80" width="30" height="30" fill="#fff"/>
  </g>
  <text x="210" y="140" text-anchor="middle">Figura 2</text>
  <g stroke="#333" stroke-width="1.5">
    <rect x="310" y="20" width="30" height="30" fill="#fff"/>
    <rect x="340" y="20" width="30" height="30" fill="#fff"/>
    <rect x="370" y="20" width="30" height="30" fill="#fff"/>
    <rect x="400" y="20" width="30" height="30" fill="#fff"/>
    <rect x="430" y="20" width="30" height="30" fill="#fff"/>
    <rect x="310" y="50" width="30" height="30" fill="#fff"/>
    <rect x="340" y="50" width="30" height="30" fill="#555"/>
    <rect x="370" y="50" width="30" height="30" fill="#555"/>
    <rect x="400" y="50" width="30" height="30" fill="#555"/>
    <rect x="430" y="50" width="30" height="30" fill="#fff"/>
    <rect x="310" y="80" width="30" height="30" fill="#fff"/>
    <rect x="340" y="80" width="30" height="30" fill="#fff"/>
    <rect x="370" y="80" width="30" height="30" fill="#fff"/>
    <rect x="400" y="80" width="30" height="30" fill="#fff"/>
    <rect x="430" y="80" width="30" height="30" fill="#fff"/>
  </g>
  <text x="385" y="140" text-anchor="middle">Figura 3</text>
</svg>
