<svg xmlns="http://www.w3.org/2000/svg" viewBox="0 0 440 330" width="440" height="330" font-family="Arial, Helvetica, sans-serif" font-size="15">
<rect width="440" height="330" fill="#fff"/>
<rect x="79" y="179" width="82" height="82" fill="#e6e6e6" rx="4"/>
<rect x="79" y="79" width="82" height="82" fill="#e6e6e6" rx="4"/>
<rect x="179" y="179" width="82" height="82" fill="#e6e6e6" rx="4"/>
<rect x="179" y="79" width="82" height="82" fill="#e6e6e6" rx="4"/>
<rect x="279" y="179" width="82" height="82" fill="#e6e6e6" rx="4"/>
<rect x="279" y="79" width="82" height="82" fill="#e6e6e6" rx="4"/>
<line x1="70" y1="270" x2="370" y2="270" stroke="#555" stroke-width="3"/>
<line x1="70" y1="170" x2="370" y2="170" stroke="#555" stroke-width="3"/>
<line x1="70" y1="70" x2="370" y2="70" stroke="#555" stroke-width="3"/>
<line x1="70" y1="270" x2="70" y2="70" stroke="#555" stroke-width="3"/>
<line x1="170" y1="270" x2="170" y2="70" stroke="#555" stroke-width="3"/>
<line x1="270" y1="270" x2="270" y2="70" stroke="#555" stroke-width="3"/>
<line x1="370" y1="270" x2="370" y2="70" stroke="#555" stroke-width="3"/>
<line x1="170" y1="170" x2="270" y2="170" stroke="#c0392b" stroke-width="5" stroke-dasharray="10 6"/>
<line x1="211.0" y1="161" x2="229.0" y2="179" stroke="#c0392b" stroke-width="4"/>
<line x1="211.0" y1="179" x2="229.0" y2="161" stroke="#c0392b" stroke-width="4"/>
<text x="220.0" y="154" text-anchor="middle" font-size="14" fill="#c0392b" font-weight="bold">em obras</text>
<circle cx="70" cy="270" r="7" fill="#2e6fb0"/><text x="70" y="296" text-anchor="middle" font-weight="bold">Casa</text>
<circle cx="370" cy="70" r="7" fill="#2e8b57"/><text x="370" y="56" text-anchor="middle" font-weight="bold">Escola</text>
<line x1="400" y1="300" x2="400" y2="262" stroke="#333" stroke-width="2"/><path d="M400,254 L394,266 L406,266 Z" fill="#333"/>
<text x="400" y="320" text-anchor="middle" font-size="14">N</text>
</svg>
