<svg xmlns="http://www.w3.org/2000/svg" viewBox="0 0 480 320" width="480" height="320" font-family="Arial, Helvetica, sans-serif" font-size="16">
  <rect width="480" height="320" fill="#ffffff"/>
  <path d="M 317.3 224.3 L 433.2 193.2 A 200 200 0 0 0 46.8 193.2 L 162.7 224.3 A 80 80 0 0 1 317.3 224.3 Z" fill="#fbe3ea" stroke="#b03a5b" stroke-width="3"/>
  <line x1="240" y1="245" x2="433.2" y2="193.2" stroke="#8a5a2b" stroke-width="1.5"/>
  <line x1="240" y1="245" x2="393.2" y2="116.4" stroke="#8a5a2b" stroke-width="1.5"/>
  <line x1="240" y1="245" x2="324.5" y2="63.7" stroke="#8a5a2b" stroke-width="1.5"/>
  <line x1="240" y1="245" x2="240.0" y2="45.0" stroke="#8a5a2b" stroke-width="1.5"/>
  <line x1="240" y1="245" x2="155.5" y2="63.7" stroke="#8a5a2b" stroke-width="1.5"/>
  <line x1="240" y1="245" x2="86.8" y2="116.4" stroke="#8a5a2b" stroke-width="1.5"/>
  <line x1="240" y1="245" x2="46.8" y2="193.2" stroke="#8a5a2b" stroke-width="1.5"/>
  <path d="M 272.8 236.2 A 34 34 0 0 0 207.2 236.2" fill="none" stroke="#c0392b" stroke-width="2"/>
  <text x="240.0" y="203.0" text-anchor="middle" fill="#c0392b" font-size="15">150°</text>
  <circle cx="240" cy="245" r="4" fill="#333"/>
  <text x="240.0" y="285.0" text-anchor="middle" font-weight="bold">O</text>
  <line x1="244.1" y1="260.5" x2="437.3" y2="208.7" stroke="#333" stroke-width="1.3"/>
  <line x1="242.5" y1="254.3" x2="245.8" y2="266.6" stroke="#333" stroke-width="1.3"/>
  <line x1="435.7" y1="202.5" x2="439.0" y2="214.9" stroke="#333" stroke-width="1.3"/>
  <text x="345.7" y="258.1" text-anchor="middle" font-size="15">20 cm</text>
  <line x1="235.9" y1="260.5" x2="158.6" y2="239.7" stroke="#333" stroke-width="1.3"/>
  <line x1="237.5" y1="254.3" x2="234.2" y2="266.6" stroke="#333" stroke-width="1.3"/>
  <line x1="160.2" y1="233.6" x2="156.9" y2="245.9" stroke="#333" stroke-width="1.3"/>
  <text x="192.3" y="273.6" text-anchor="middle" font-size="15">8 cm</text>
</svg>
